<svg width="147" height="36" viewBox="0 0 147 36" fill="none" xmlns="http://www.w3.org/2000/svg">
<g clip-path="url(#clip0)">
<path d="M27.3399 26.5334V26.6744H17.5131V26.5334C18.2853 25.4778 18.4256 23.8592 17.1972 20.8679L15.8285 17.5246L6.35225 17.3489L5.7907 18.7918C4.21138 22.8738 5.15919 25.0555 7.61598 26.4633V26.6744H0V26.5334C1.43904 25.4428 2.45679 23.8238 3.75515 20.7623L10.599 4.57454L12.4942 0H14.6351L23.7251 20.7623C25.0588 23.8238 26.0416 25.4428 27.3399 26.5334ZM15.5126 16.6803L10.9149 5.38421L6.56287 16.8209L15.5126 16.6803Z" fill="#1B6765"/>
<path d="M47.4125 28.6802C47.4125 32.9032 43.0255 36.0002 36.0061 36.0002C30.7066 36.0002 28.1794 34.3107 28.1794 32.0585C28.1794 30.4399 29.5132 29.138 32.0403 28.1877C30.461 27.7302 29.5485 26.7448 29.5485 25.0206C29.5485 23.2258 30.7769 21.7479 33.5143 20.4811C30.5663 19.5308 28.7763 17.3491 28.7763 14.6745C28.7763 10.5925 32.3562 7.74219 37.6557 7.74219C44.6981 7.74219 45.9385 12.3522 45.9385 14.0059C45.9385 18.1584 42.3586 21.0087 37.0238 21.0087C35.9447 21.021 34.8693 20.8789 33.8302 20.5867C33.5725 20.7948 33.3635 21.057 33.2179 21.355C33.0723 21.6529 32.9937 21.9792 32.9877 22.3109C32.9877 23.437 34.0408 23.7889 35.6551 23.7889H40.1475C44.5345 23.7889 47.4125 24.9501 47.4125 28.6802ZM44.1132 31.0735C44.1132 29.3489 42.7446 28.5395 39.5509 28.5395H34.918C34.0575 28.5553 33.198 28.4727 32.3562 28.2933C31.9366 28.9541 31.7283 29.7276 31.7593 30.5104C31.7593 32.9738 33.4793 35.1905 38.4628 35.1905C41.9374 35.1905 44.1132 33.5014 44.1132 31.0735ZM34.3214 13.5133C34.3214 17.1379 35.7255 20.4811 38.0416 20.4811C39.5156 20.4811 40.4284 18.264 40.4284 15.2025C40.4284 11.6835 38.8841 8.2698 36.7079 8.2698C35.1989 8.2698 34.3214 10.522 34.3214 13.5133Z" fill="#1B6765"/>
<path d="M57.1671 13.9708V23.8945C57.1671 24.9855 57.7287 25.7948 60.0801 26.5691V26.7097H49.7971V26.5691C51.3764 25.7948 51.7273 24.9855 51.7273 23.8945V12.8447C51.7273 11.7888 51.3414 11.05 49.5161 10.3463V10.2052L57.0268 7.7422H57.1671V13.4783C58.5361 10.7683 60.1155 8.48099 62.8179 7.74219L64.0463 13.4077C61.6594 12.8798 58.8871 12.6686 57.1671 13.9708Z" fill="#1B6765"/>
<path d="M82.1766 21.9591L82.2815 22.0997C81.4044 24.6687 78.772 27.2022 74.4903 27.2022C68.9802 27.2022 65.26 23.6131 65.26 17.7714C65.26 11.7537 69.5767 7.74219 74.385 7.74219C79.5092 7.74219 82.3869 11.1205 82.7382 16.5748H71.0507C71.2613 21.3255 73.4022 23.6131 77.4736 23.5075C79.5441 23.4721 81.0182 22.9445 82.1766 21.9591ZM71.0157 15.7304V16.0469L76.7714 15.3432C76.7364 10.4518 75.3328 8.26979 73.5778 8.26979C71.9635 8.26979 71.0157 10.4518 71.0157 15.7304Z" fill="#1B6765"/>
<path d="M102.164 21.9591L102.269 22.0997C101.392 24.6687 98.7598 27.2022 94.4781 27.2022C88.968 27.2022 85.2478 23.6131 85.2478 17.7714C85.2478 11.7537 89.5645 7.74219 94.3728 7.74219C99.497 7.74219 102.375 11.1205 102.726 16.5748H91.0385C91.2491 21.3255 93.39 23.6131 97.4614 23.5075C99.5319 23.4721 101.006 22.9445 102.164 21.9591ZM91.0035 15.7304V16.0469L96.7592 15.3432C96.7242 10.4518 95.3206 8.26979 93.5656 8.26979C91.9513 8.26979 91.0035 10.4518 91.0035 15.7304Z" fill="#1B6765"/>
<path d="M126.119 26.569V26.7097H116.819V26.569C118.398 25.7948 118.784 24.9855 118.784 23.8945V14.8152C118.784 12.3873 117.731 10.8037 115.52 10.8037C114.953 10.7748 114.386 10.8699 113.858 11.0826C113.331 11.2953 112.856 11.6204 112.467 12.0354V23.8945C112.467 24.9855 112.818 25.7948 114.397 26.569V26.7097H105.097V26.569C106.676 25.7948 107.027 24.9855 107.027 23.8945V12.8447C107.027 11.7888 106.641 11.05 104.816 10.3463V10.2052L112.326 7.74221H112.467V11.5074C113.035 10.3731 113.908 9.42006 114.987 8.75503C116.065 8.09 117.307 7.73929 118.574 7.74221C122.154 7.74221 124.189 10.0295 124.189 13.8301V23.8945C124.189 24.9855 124.54 25.7948 126.119 26.569Z" fill="#1B6765"/>
<path d="M147 25.7948V25.9355L139.7 27.2022H139.349V23.1553C138.05 25.6892 136.19 27.2022 133.277 27.2022C130.399 27.2022 128.434 25.3373 128.434 22.5923C128.434 19.4606 131.347 18.2991 136.646 16.7155L139.349 15.9062V14.4282C139.349 11.05 137.489 9.32574 134.049 9.32574C132.505 9.32574 131.101 9.74776 130.505 10.3462C132.435 9.81827 134.225 10.8388 134.225 12.8096C134.243 13.1594 134.187 13.5091 134.061 13.8356C133.934 14.1621 133.74 14.4581 133.492 14.7041C133.243 14.9501 132.945 15.1405 132.618 15.2628C132.291 15.3851 131.941 15.4365 131.592 15.4137C130.084 15.4137 128.96 14.3577 128.96 12.6335C128.96 9.57201 132.856 7.74219 137.033 7.74219C141.7 7.74219 144.754 9.57201 144.754 14.5338V23.2609C144.754 24.2814 145.14 25.1612 147 25.7948ZM139.349 22.8389V16.3286L138.331 16.786C134.927 18.4401 134.049 19.918 134.049 21.5718C134.049 23.0851 134.892 24 136.401 24C137.494 23.9982 138.547 23.5837 139.349 22.8389Z" fill="#1B6765"/>
<path d="M49.9252 6.19635C52.3395 3.77182 53.4972 1.00608 52.5111 0.0189068C51.525 -0.96827 48.7685 0.196937 46.3543 2.62147C43.94 5.046 42.7823 7.81174 43.7684 8.79892C44.7545 9.78609 47.511 8.62089 49.9252 6.19635Z" fill="#1B6765"/>
</g>
<defs>
<clipPath id="clip0">
<rect width="147" height="36" fill="white"/>
</clipPath>
</defs>
</svg>
